<?xml version="1.0" encoding="UTF-8" standalone="no"?>
<!-- Created with Inkscape (http://www.inkscape.org/) -->

<svg
   width="900"
   height="600"
   viewBox="0 0 238.12499 158.75"
   version="1.1"
   id="svg1"
   inkscape:version="1.3.2 (091e20e, 2023-11-25, custom)"
   sodipodi:docname="sketch_book.svg"
   xml:space="preserve"
   xmlns:inkscape="http://www.inkscape.org/namespaces/inkscape"
   xmlns:sodipodi="http://sodipodi.sourceforge.net/DTD/sodipodi-0.dtd"
   xmlns:xlink="http://www.w3.org/1999/xlink"
   xmlns="http://www.w3.org/2000/svg"
   xmlns:svg="http://www.w3.org/2000/svg"><sodipodi:namedview
     id="namedview1"
     pagecolor="#ffffff"
     bordercolor="#000000"
     borderopacity="0.25"
     inkscape:showpageshadow="2"
     inkscape:pageopacity="0.0"
     inkscape:pagecheckerboard="0"
     inkscape:deskcolor="#d1d1d1"
     inkscape:document-units="mm"
     inkscape:zoom="1"
     inkscape:cx="1641"
     inkscape:cy="197.99999"
     inkscape:window-width="1920"
     inkscape:window-height="992"
     inkscape:window-x="-8"
     inkscape:window-y="-8"
     inkscape:window-maximized="1"
     inkscape:current-layer="layer3"
     showguides="true"><inkscape:page
       x="0"
       y="0"
       width="238.12498"
       height="158.75"
       id="page2"
       margin="0"
       bleed="0" /><sodipodi:guide
       position="1726.8749,136.78958"
       orientation="0,-1"
       id="guide104"
       inkscape:locked="false" /><sodipodi:guide
       position="-253.69518,34.180258"
       orientation="1,0"
       id="guide105"
       inkscape:locked="false" /><sodipodi:guide
       position="287.12707,150.72933"
       orientation="0,-1"
       id="guide131"
       inkscape:locked="false" /><sodipodi:guide
       position="1840.5328,21.350151"
       orientation="0,-1"
       id="guide132"
       inkscape:locked="false" /></sodipodi:namedview><defs
     id="defs1"><linearGradient
       id="linearGradient133"
       inkscape:collect="always"><stop
         style="stop-color:#8c8c8c;stop-opacity:1;"
         offset="0"
         id="stop133" /><stop
         style="stop-color:#787878;stop-opacity:0;"
         offset="1"
         id="stop134" /></linearGradient><rect
       x="958"
       y="128"
       width="857"
       height="431"
       id="rect114" /><linearGradient
       inkscape:collect="always"
       xlink:href="#linearGradient133"
       id="linearGradient142"
       gradientUnits="userSpaceOnUse"
       x1="2098.4104"
       y1="0"
       x2="2098.4104"
       y2="15.715447"
       gradientTransform="translate(-1736.8749)" /></defs><g
     inkscape:groupmode="layer"
     id="layer3"
     inkscape:label="pag1"
     transform="translate(-248.125)"><text
       xml:space="preserve"
       transform="matrix(0.24534681,0,0,0.24534681,27.104416,-10.917902)"
       id="text114"
       style="font-style:normal;font-variant:normal;font-weight:normal;font-stretch:normal;font-size:26.6667px;font-family:Arial;-inkscape-font-specification:Arial;white-space:pre;shape-inside:url(#rect114);display:inline;opacity:1;fill:#666666;fill-opacity:1;fill-rule:nonzero;paint-order:stroke fill markers"><tspan
         x="958"
         y="152.02015"
         id="tspan2"><tspan
           style="fill:#000000"
           id="tspan1">      Everything about me stems from my love of visual art. I am curious, </tspan></tspan><tspan
         x="958"
         y="185.35352"
         id="tspan4"><tspan
           style="fill:#000000"
           id="tspan3">patient, and persistent. As a native New Yorker from The Bronx, I spend </tspan></tspan><tspan
         x="958"
         y="218.6869"
         id="tspan7"><tspan
           style="fill:#000000"
           id="tspan5">a lot of time </tspan><tspan
           style="fill:#000000"
           id="tspan6">looking at forms because beauty can exist anywhere.
</tspan></tspan><tspan
         x="958"
         y="252.02027"
         id="tspan9"><tspan
           style="fill:#000000"
           id="tspan8">
</tspan></tspan><tspan
         x="958"
         y="285.35364"
         id="tspan12"><tspan
           style="fill:#000000"
           id="tspan10">      The foundation of my work rests on playful patterns: spaces </tspan><tspan
           style="fill:#000000"
           id="tspan11">between </tspan></tspan><tspan
         x="958"
         y="318.68702"
         id="tspan15"><tspan
           style="fill:#000000"
           id="tspan13">tone and shade that inspire my creativity. I tend to see </tspan><tspan
           style="fill:#000000"
           id="tspan14">nuances that may </tspan></tspan><tspan
         x="958"
         y="352.02039"
         id="tspan18"><tspan
           style="fill:#000000"
           id="tspan16">appear as secondary to the eye, because primary is not </tspan><tspan
           style="fill:#000000"
           id="tspan17">always first. 
</tspan></tspan><tspan
         x="958"
         y="385.35377"
         id="tspan46"><tspan
           style="fill:#000000"
           id="tspan45">
</tspan></tspan><tspan
         x="958"
         y="418.68714"
         id="tspan48"><tspan
           style="fill:#000000"
           id="tspan47">      To me, every project begins with subtle light, where ideas can hide in </tspan></tspan><tspan
         x="958"
         y="452.02051"
         id="tspan51"><tspan
           style="fill:#000000"
           id="tspan49">plain </tspan><tspan
           style="fill:#000000"
           id="tspan50">sight. The pages that follow highlight my inpiration in photography, </tspan></tspan><tspan
         x="958"
         y="485.35389"
         id="tspan53"><tspan
   style="fill:#000000"
   id="tspan52">character design, and abstracts.  Enjoy</tspan>!
</tspan><tspan
         x="958"
         y="518.68726"
         id="tspan54">
</tspan><tspan
         x="958"
         y="552.02064"
         id="tspan55">
</tspan></text><path
       style="opacity:1;fill:#000000;fill-opacity:1;fill-rule:nonzero;stroke-width:0.264583;paint-order:stroke fill markers"
       id="path123"
       d="m 384.32921,131.46423 c 0.81436,-0.85984 1.62489,-1.71724 2.3789,-2.63135 0.97935,-1.19993 1.95286,-2.40482 2.87697,-3.64801 0.5941,-0.83224 1.16102,-1.68477 1.64253,-2.58742 0.24242,-0.48554 0.41178,-1.00152 0.53317,-1.52916 0.053,-0.28751 0.0938,-0.57714 0.13705,-0.86625 0.003,-0.008 0.005,-0.0166 0.007,-0.0248 -0.018,0.0544 -0.036,0.10887 -0.0541,0.1633 -2.1e-4,7.9e-4 0,10e-4 0,2.6e-4 v 0 c 0.0175,-0.0546 0.0348,-0.10926 0.0522,-0.16389 -0.003,0.008 -0.005,0.0167 -0.007,0.025 -0.0433,0.28908 -0.084,0.57869 -0.13703,0.86618 -0.12137,0.52754 -0.2907,1.04344 -0.53308,1.52891 -0.48149,0.9026 -1.04836,1.75509 -1.64243,2.5873 -0.92411,1.24317 -1.89759,2.44805 -2.87695,3.64795 -0.75401,0.91412 -1.56453,1.77151 -2.37889,2.63135 0,5.3e-4 0,10e-4 0,5.3e-4 z" /><path
       style="opacity:1;fill:#000000;fill-opacity:1;fill-rule:nonzero;stroke-width:0.264583;paint-order:stroke fill markers"
       id="path124"
       d="m 386.39325,133.99124 c 1.25249,-1.23075 2.38096,-2.57893 3.4402,-3.97715 0.93749,-1.2795 1.77583,-2.62927 2.55759,-4.00849 0.43365,-0.77178 0.81179,-1.57228 1.16644,-2.38278 0.15634,-0.35279 0.2975,-0.71231 0.42712,-1.07574 0.0542,-0.19893 0.3847,-0.64533 -0.91546,-0.14072 -0.14719,0.0571 -0.0469,0.31228 -0.0692,0.46859 -0.03,0.21085 -0.0585,0.42193 -0.0877,0.63289 -0.10075,1.19273 -0.35161,2.41615 -0.19196,3.61637 0.0273,0.20492 0.0853,0.40456 0.12796,0.60685 0.40346,1.26147 1.09537,1.60579 2.36664,1.57202 1.48744,-0.27144 2.28375,-1.61336 3.00916,-2.81006 0.6944,-1.24008 1.1612,-2.58977 1.63727,-3.92428 0.23781,-0.66667 -0.70501,-1.00299 -0.94282,-0.33632 v 0 c -0.45349,1.27138 -0.89548,2.55833 -1.55106,3.74274 -0.44181,0.73297 -1.03855,1.84135 -1.85312,2.22755 -0.1085,0.0514 -0.23066,0.067 -0.34599,0.10045 -0.66429,0.0526 -1.14848,-0.0841 -1.34258,-0.78765 -0.29721,-1.27366 -0.0548,-2.58748 0.078,-3.8703 0.0289,-0.20833 0.057,-0.41675 0.0866,-0.62498 0.0241,-0.16984 0.17084,-0.36745 0.0743,-0.50922 -0.70794,-1.03941 -0.82666,-0.82825 -1.02314,-0.29949 -0.12115,0.34145 -0.25461,0.67874 -0.40114,1.0101 -0.34075,0.77906 -0.70363,1.5487 -1.12032,2.29059 -0.75928,1.34111 -1.57462,2.65306 -2.4847,3.8977 -1.01455,1.34121 -2.09722,2.63134 -3.29039,3.81862 -0.5393,0.45841 0.10898,1.22112 0.64828,0.76271 z" /><path
       style="opacity:1;fill:#000000;fill-opacity:1;fill-rule:nonzero;stroke-width:0.264583;paint-order:stroke fill markers"
       id="path125"
       d="m 403.84559,122.27498 c -0.83436,0.0549 -1.71114,0.47606 -2.28534,1.09307 -0.18957,0.20373 -0.33612,0.44365 -0.50419,0.66547 -0.62412,1.09449 -1.25968,2.41356 -0.84743,3.69803 0.0672,0.20939 0.19066,0.39635 0.28599,0.59453 0.17862,0.16862 0.33023,0.37153 0.53586,0.50586 0.87998,0.57478 2.10217,0.44197 2.97606,-0.0654 0.25183,-0.14622 0.46516,-0.35041 0.69773,-0.52561 1.29035,-1.35065 1.61319,-2.68908 1.24071,-4.48833 -0.0609,-0.16153 -0.12171,-0.32306 -0.18256,-0.48459 -0.25733,-0.65938 -1.18983,-0.29546 -0.9325,0.36392 v 0 c 0.0457,0.11162 0.0915,0.22324 0.13724,0.33486 0.29784,1.2643 0.0485,2.53618 -0.87929,3.48544 -0.16126,0.13259 -0.30781,0.28545 -0.48379,0.39778 -0.67564,0.43127 -1.56559,0.51882 -2.21834,0.0202 -0.1586,-0.28171 -0.28959,-0.44719 -0.31795,-0.7865 -0.0726,-0.86966 0.40864,-1.72466 0.79705,-2.46026 0.11171,-0.1618 0.20455,-0.33841 0.33515,-0.4854 0.40182,-0.45226 1.04402,-0.80804 1.6456,-0.86197 0.70782,0 0.70782,-1.001 0,-1.001 z" /><path
       style="opacity:1;fill:#000000;fill-opacity:1;fill-rule:nonzero;stroke-width:0.264583;paint-order:stroke fill markers"
       id="path126"
       d="m 407.99881,121.47207 c -0.65183,1.94784 -1.37263,3.87126 -2.10783,5.78883 -0.30692,0.80192 -0.60367,1.60766 -0.9012,2.41309 -0.24526,0.66396 0.69372,1.01082 0.93898,0.34686 v 0 c 0.29613,-0.80159 0.59143,-1.6035 0.89686,-2.40161 0.73978,-1.92954 1.46497,-3.865 2.12093,-5.82496 0.22783,-0.67015 -0.71991,-0.99235 -0.94774,-0.32221 z" /><path
       style="opacity:1;fill:#000000;fill-opacity:1;fill-rule:nonzero;stroke-width:0.264583;paint-order:stroke fill markers"
       id="path127"
       d="m 407.70785,121.51823 c 0.60296,-0.026 1.68582,-0.21803 2.2343,0.0395 0.0581,0.0273 0.0691,0.10825 0.10364,0.16238 0.0108,0.0592 0.0407,0.118 0.0328,0.1777 -0.0238,0.1774 -0.28278,0.35824 -0.36944,0.43957 -0.56914,0.53409 -1.16686,1.00861 -1.78718,1.48178 -0.48545,0.40259 -2.31335,1.30165 -1.11487,2.12273 0.19465,0.13334 0.4717,-0.0129 0.70755,-0.0193 0.44992,-0.0488 2.0266,-0.47374 2.23805,0.18387 0.0244,0.0759 0.003,0.15934 0.004,0.239 -0.28506,1.46581 -1.17427,2.84049 -2.14315,3.9561 -0.32811,0.3778 -0.69993,0.71532 -1.04989,1.07298 -0.37325,0.3174 -0.74652,0.6348 -1.11977,0.95219 -0.53856,0.45932 0.11102,1.22094 0.64955,0.76163 v 0 c 0.39587,-0.33856 0.79171,-0.67711 1.18756,-1.01566 0.37748,-0.38977 0.77806,-0.75841 1.13241,-1.1693 0.86725,-1.00561 2.01309,-2.7093 2.2656,-4.04547 0.0496,-0.26226 0.0243,-0.53326 0.0365,-0.79989 -0.09,-0.22467 -0.12996,-0.47654 -0.26985,-0.67403 -0.67683,-0.95556 -2.09481,-0.59316 -3.04053,-0.45641 -0.42567,0.15606 -0.27385,0.0155 -0.1237,0.74262 0.005,0.0225 0.003,-0.0491 0.0172,-0.0668 0.0669,-0.0806 0.14235,-0.15455 0.22244,-0.2221 0.0846,-0.0713 0.97877,-0.74415 1.0083,-0.76643 0.80364,-0.61374 2.15048,-1.47045 2.46927,-2.48045 0.0672,-0.21294 0.0404,-0.45401 -0.0175,-0.66967 -0.052,-0.19355 -0.20135,-0.3466 -0.30199,-0.5199 -0.1828,-0.1234 -0.34576,-0.28317 -0.54841,-0.37022 -0.62214,-0.26726 -1.82771,-0.0948 -2.51142,-0.0535 -0.70504,0.0627 -0.6164,1.05974 0.0886,0.99707 z" /><path
       style="opacity:1;fill:#000000;fill-opacity:1;fill-rule:nonzero;stroke-width:0.264583;paint-order:stroke fill markers"
       id="path128"
       d="m 413.82351,120.66425 c -0.74901,1.29211 -1.39843,2.63753 -1.99755,4.00453 -0.25115,0.68638 -0.85606,1.76395 -0.10637,2.39087 0.40042,0.33487 0.88736,0.2776 1.35411,0.29371 1.5212,-0.16931 3.01395,-0.61112 4.38841,-1.28203 0.63521,-0.31227 0.19357,-1.21059 -0.44162,-0.89831 v 0 c -1.23055,0.60997 -2.57413,0.99475 -3.93377,1.17942 -0.14274,0.003 -0.28604,-0.004 -0.4282,0.009 -0.0615,0.006 -0.1224,0.0225 -0.1792,0.0467 -0.0385,0.0164 -0.0824,0.11007 -0.10208,0.0731 -0.16878,-0.31678 0.29858,-1.14635 0.36558,-1.41057 0.58197,-1.32903 1.21314,-2.63687 1.94037,-3.89339 0.36261,-0.60788 -0.49707,-1.12068 -0.85968,-0.5128 z" /><path
       style="opacity:1;fill:#000000;fill-opacity:1;fill-rule:nonzero;stroke-width:0.264583;paint-order:stroke fill markers"
       id="path129"
       d="m 412.81788,120.96643 c 1.25815,-0.0832 2.51709,-0.20132 3.75878,-0.42306 0.7299,-0.11895 1.42557,-0.41245 2.15691,-0.52023 0.69924,-0.10979 0.54398,-1.09867 -0.15526,-0.98889 v 0 c -0.73771,0.12044 -1.44473,0.38405 -2.17882,0.52392 -1.1861,0.21493 -2.39001,0.32137 -3.59172,0.40731 -0.70779,0.007 -0.69765,1.00811 0.0101,1.00095 z" /><path
       style="opacity:1;fill:#000000;fill-opacity:1;fill-rule:nonzero;stroke-width:0.264583;paint-order:stroke fill markers"
       id="path130"
       d="m 413.34059,123.3524 c 1.05563,-0.18241 2.1209,-0.29835 3.17833,-0.46766 0.48647,-0.0772 0.96084,-0.20604 1.43277,-0.34343 0.67938,-0.19865 0.39844,-1.15942 -0.28093,-0.96077 v 0 c -0.43151,0.1268 -0.86545,0.24487 -1.31051,0.31585 -1.04698,0.16859 -2.10216,0.2813 -3.14732,0.46319 -0.70202,0.0903 -0.57439,1.08308 0.12766,0.99282 z" /><path
       style="opacity:1;fill:#000000;fill-opacity:1;fill-rule:nonzero;stroke-width:0.264583;paint-order:stroke fill markers"
       id="path131"
       d="m 420.59097,118.40236 c -0.45657,1.36864 -0.96102,2.72062 -1.4454,4.07953 -0.21452,0.76096 -1.05293,2.73706 -0.51786,3.47696 0.15277,0.21127 0.40428,0.32931 0.60642,0.49396 0.23794,0.0386 0.47278,0.11655 0.71385,0.11577 0.92927,-0.003 1.87925,-0.38435 2.75129,-0.65713 0.67546,-0.21165 0.37613,-1.16685 -0.29929,-0.9552 v 0 c -0.86916,0.27284 -1.7607,0.61631 -2.68246,0.62001 -0.0446,0.0286 -0.09,0.11546 -0.13388,0.0857 -0.14141,-0.096 -0.1184,-0.60853 -0.11056,-0.67102 0.0935,-0.74655 0.4205,-1.45336 0.61539,-2.17297 0.48794,-1.36897 0.99629,-2.73092 1.45568,-4.10988 0.21617,-0.67399 -0.73699,-0.97971 -0.95318,-0.30572 z" /></g><g
     inkscape:groupmode="layer"
     id="layer8"
     inkscape:label="page3"
     transform="translate(-248.125)"><rect
       style="display:none;fill:url(#linearGradient142);fill-opacity:1;fill-rule:nonzero;stroke-width:0.264583;paint-order:stroke fill markers"
       id="rect132-03"
       width="238.125"
       height="15.715447"
       x="248.125"
       y="0" /></g></svg>
